<svg width="256" height="256" viewBox="0 0 256 256" fill="none" xmlns="http://www.w3.org/2000/svg">
<rect width="256" height="256" rx="24" fill="#FF5721"/>
<path d="M192.72 90.1826C194.437 91.0347 196.549 90.5538 197.508 88.8983C198.438 87.2907 197.879 85.2579 196.285 84.2981C194.339 83.1256 192.327 82.0514 190.255 81.0819C188.385 80.2063 187.442 78.0616 188.064 76.0965C191.328 65.7751 191.968 54.6774 189.948 44.0515C189.411 41.2278 185.981 40.3607 184.157 42.5867C183.661 43.1928 183.175 43.8081 182.7 44.4322C182.243 45.033 181.995 45.7632 181.954 46.5161C181.42 56.2307 178.76 65.3803 174.432 73.5106C173.694 74.8953 172.138 75.6064 170.577 75.4131C167.072 74.9788 163.533 74.8244 160.003 74.9509C159.015 74.9864 158.17 75.6537 157.824 76.577C157.242 78.1306 158.234 79.8808 159.882 80.1052C171.284 81.6574 182.421 85.0689 192.72 90.1826Z" fill="white"/>
<path fill-rule="evenodd" clip-rule="evenodd" d="M154.311 132.396C152.931 134.503 153.879 137.371 156.302 138.08C165.171 140.673 174.195 142.246 183.216 142.839C187.119 143.096 190.814 141.126 192.827 137.783C195.345 133.603 197.689 129.307 199.847 124.904C201.382 121.777 202.824 118.596 204.17 115.366C205.761 111.548 204.496 107.141 201.05 104.84C184.59 93.8464 165.421 87.665 145.411 87.0413C140.886 86.9003 137.148 90.3012 136.251 94.7256C136.013 95.8992 135.764 97.0683 135.502 98.2332C135.487 98.296 135.473 98.3593 135.459 98.4222L135.459 98.4251C135.43 98.5507 135.402 98.6764 135.373 98.8021C135.294 99.1515 135.213 99.5019 135.13 99.8514C134.64 101.935 134.114 104.004 133.546 106.057C132.03 111.574 130.242 116.982 128.2 122.262C127.526 124.004 128.183 125.992 129.813 126.909C132.538 128.443 135.319 129.877 138.149 131.207C140 132.076 142.194 131.257 143.03 129.396C144.317 126.529 145.52 123.626 146.635 120.686C148.217 116.513 149.625 112.27 150.845 107.962C151.533 105.534 152.163 103.087 152.73 100.621C152.969 99.6063 153.884 98.8852 154.928 98.9369C155.147 98.948 155.365 98.9596 155.583 98.9722C159.902 99.2172 163.272 99.4396 167.345 101.566C168.543 102.192 169.011 103.634 168.52 104.89C164.61 114.886 160.018 123.686 154.311 132.396Z" fill="white"/>
<path d="M132.542 141.271C134.568 142.278 135.353 144.791 134.138 146.694C130.321 152.669 126.125 158.402 121.601 163.864C120.333 165.394 122.325 167.581 123.828 166.279C130.287 160.683 136.364 154.647 141.982 148.211C143.04 146.998 144.741 146.563 146.26 147.105C155.717 150.481 165.404 152.659 175.122 153.69C177.621 153.955 178.895 156.888 177.24 158.774C169.951 167.083 161.872 174.683 153.119 181.459C149.512 184.251 144.925 185.5 140.418 184.769C127.508 182.676 114.984 178.251 103.652 171.736C101.64 170.579 101.251 167.885 102.731 166.101C103.487 165.19 104.234 164.271 104.971 163.344C110.936 155.846 116.269 147.854 120.901 139.473C121.961 137.554 124.409 136.878 126.319 137.962C128.362 139.122 130.437 140.226 132.542 141.271Z" fill="white"/>
<path d="M95.643 179.795C94.132 178.805 92.1313 178.955 90.8026 180.178C83.8106 186.613 76.2916 192.477 68.3335 197.68C63.9676 200.537 59.4705 203.194 54.8613 205.642C50.4354 207.993 51.6903 214.818 56.7029 214.672C74.4831 214.151 92.1784 210.911 108.962 205.003C112.747 203.67 116.471 202.209 120.131 200.625C122.353 199.664 124.551 198.657 126.724 197.605C128.512 196.74 128.181 194.111 126.265 193.584C115.42 190.605 105.048 185.953 95.643 179.795Z" fill="white"/>
</svg>
